<svg width="186" height="51" viewBox="0 0 186 51" fill="none" xmlns="http://www.w3.org/2000/svg">
<path d="M88.7752 33.8908C84.7381 33.8908 84.1831 32.9411 84.023 28.5837C83.8629 24.23 84.023 14.8859 84.023 14.8859C84.1012 5.70184 80.7755 0 71.5132 0C64.9399 0 60.508 3.40397 58.6049 10.5322C57.577 3.95889 54.0911 0 46.4117 0C40.2369 0 35.9614 3.0092 33.9019 9.26223V0.871477C33.9019 0.871477 17.6567 0.871477 16.8746 0.871477C11.4111 0.860304 0 4.62925 0 19.2283V37.8534C0 47.3353 3.98868 51 10.5322 51C15.5041 51 18.9043 48.6463 18.9043 44.7209C18.9043 41.9761 17.2694 40.3412 14.5879 40.3412C12.1038 40.3412 10.4689 41.8458 10.4689 44.1325C10.4689 45.6371 11.5824 48.0578 15.113 47.7301C14.2639 48.2515 13.2807 48.5792 11.8431 48.5792C8.77063 48.5792 6.93829 47.0746 6.93829 40.2071V16.9193C6.93829 9.99219 12.5545 4.37228 19.4816 4.35366H22.3493C26.7029 4.35366 27.0195 6.09661 27.1796 9.73894C27.3361 13.4595 27.3361 24.5466 27.1796 28.6619C26.9413 32.7809 26.5465 33.8088 22.5094 33.887H19.9769V37.291C20.7702 37.291 26.7067 37.0527 30.4272 37.0527C34.1477 37.0527 39.533 37.291 40.8775 37.291V33.887H38.7397C34.8591 33.887 33.9876 32.8591 33.9094 28.58L33.8312 22.3232C33.6747 9.65328 37.1569 3.79502 44.0468 3.79502C50.1434 3.79502 52.0428 8.23061 52.2029 15.5935C52.3594 20.0291 52.3594 24.4609 52.2029 28.6582C52.1247 32.8554 51.0931 33.8833 47.2944 33.8833H45.3168V37.2873C46.0281 37.2873 51.8864 37.0489 55.6106 37.0489C59.3349 37.0489 64.6382 37.2873 65.9045 37.2873V33.8833H63.7668C59.7297 33.8833 58.9364 32.9336 58.9364 28.5762V22.3195C58.9364 10.2045 61.8674 3.7913 69.0701 3.7913C75.1667 3.7913 77.148 8.22689 77.3044 15.5897C77.3827 19.8652 77.3827 24.4572 77.3044 28.6544C77.148 32.8517 76.1946 33.8796 72.3959 33.8796H70.3363V37.2836C71.0477 37.2836 76.9879 37.0452 80.6302 37.0452C84.2725 37.0452 89.6578 37.2836 90.9241 37.2836V33.8796H88.7863L88.7752 33.8908ZM16.5394 12.3459C14.465 12.3459 12.8189 13.992 12.8189 16.0665C12.8189 18.1409 14.4687 19.787 16.5394 19.787C18.6101 19.787 20.2078 18.1371 20.2078 16.0665C20.2078 13.9958 18.5617 12.3459 16.5394 12.3459Z" fill="black"/>
<path d="M98.1797 1.56836H102.183L106.265 9.81387L110.328 1.56836H114.332V15.6647H111.073L111.054 6.73391L107.453 14.2569H105.081L101.461 6.73391V15.6647H98.1834V1.56836H98.1797Z" fill="black"/>
<path d="M124.868 11.9851C125.389 12.5214 126.056 12.7896 126.86 12.7896C127.665 12.7896 128.291 12.5251 128.782 11.9963C129.27 11.4674 129.516 10.7524 129.516 9.85484V1.56836H133.195V9.85484C133.195 11.0764 132.938 12.1453 132.421 13.0614C131.903 13.9813 131.166 14.6889 130.209 15.1842C129.251 15.6796 128.127 15.9291 126.842 15.9291C125.557 15.9291 124.425 15.6796 123.453 15.1842C122.481 14.6889 121.728 13.9813 121.2 13.0614C120.671 12.1415 120.406 11.0727 120.406 9.85484V1.56836H124.086V9.85484C124.086 10.7412 124.347 11.4488 124.872 11.9851H124.868Z" fill="black"/>
<path d="M147.754 15.6647L145.702 11.7617H142.969V15.6647H139.289V1.56836H145.624C147.486 1.56836 148.931 2.00037 149.959 2.8644C150.983 3.72843 151.497 4.94626 151.497 6.51417C151.497 7.57186 151.281 8.48803 150.853 9.25895C150.425 10.0299 149.799 10.6295 148.983 11.0578L151.918 15.6647H147.754ZM142.969 8.82694H145.643C146.395 8.82694 146.972 8.64073 147.382 8.26458C147.792 7.88843 147.996 7.34468 147.996 6.63708C147.996 5.92947 147.792 5.42669 147.382 5.05799C146.972 4.68929 146.391 4.50308 145.643 4.50308H142.969V8.82694Z" fill="black"/>
<path d="M156.199 1.56836H168.284V4.60363H164.061V15.6647H160.382V4.60363H156.199V1.56836Z" fill="black"/>
<path d="M185.845 1.56836L180.758 11.162V15.6684H177.079V11.2626L171.891 1.56836H175.57L178.907 7.62028L182.166 1.56836H185.845Z" fill="black"/>
<path d="M103.811 25.3217V37.2691H101.439V25.3217H96.9961V23.1914H108.277V25.3217H103.811Z" fill="black"/>
<path d="M120.24 33.0007C120.039 33.0194 119.819 33.0194 119.596 33.0194H116.259V37.2613H113.887V23.1836H119.6C123.201 23.1836 125.272 24.934 125.272 27.9916C125.272 30.2448 124.225 31.8313 122.356 32.5576L125.514 37.265H122.817L120.244 33.0007H120.24ZM119.596 30.8891C121.767 30.8891 123.015 29.9655 123.015 28.0549C123.015 26.1444 121.767 25.3213 119.596 25.3213H116.259V30.8928H119.596V30.8891Z" fill="black"/>
<path d="M143.972 31.433C143.972 35.1126 141.659 37.3658 137.857 37.3658C134.054 37.3658 131.723 35.1126 131.723 31.433V23.1875H134.095V31.433C134.095 33.8054 135.562 35.2355 137.875 35.2355C140.188 35.2355 141.596 33.8277 141.596 31.433V23.1875H143.968V31.433H143.972Z" fill="black"/>
<path d="M160.503 24.5349L159.516 26.6279C157.99 25.7043 156.459 25.3207 155.394 25.3207C154.005 25.3207 153.1 25.8421 153.1 26.788C153.1 29.8643 160.701 28.2144 160.682 33.2831C160.682 35.797 158.47 37.3463 155.371 37.3463C153.159 37.3463 151.066 36.4413 149.621 35.1155L150.645 33.0634C152.094 34.3892 153.904 35.1155 155.412 35.1155C157.062 35.1155 158.045 34.4935 158.045 33.406C158.045 30.2702 150.444 32.0169 150.444 27.0115C150.444 24.5982 152.515 23.0898 155.572 23.0898C157.401 23.0898 159.192 23.6746 160.5 24.5386L160.503 24.5349Z" fill="black"/>
<path d="M172.186 25.3217V37.2691H169.814V25.3217H165.371V23.1914H176.652V25.3217H172.186Z" fill="black"/>
</svg>
