<svg width="160" height="42" viewBox="0 0 160 42" fill="none" xmlns="http://www.w3.org/2000/svg">
<path d="M96.1652 4.933C96.6681 5.31018 96.9615 5.93882 96.9615 6.81891C96.9615 7.53136 96.7519 8.15999 96.2909 8.62099C95.8299 9.1239 95.1174 9.33345 94.1535 9.33345H91.3875V4.34628H94.1535C94.9498 4.34628 95.6204 4.55582 96.1652 4.933ZM91.3456 12.77H94.4888C95.8718 12.77 97.0872 12.5185 98.1349 12.0575C99.1826 11.5546 100.021 10.8841 100.608 9.96208C101.194 9.04008 101.488 7.95045 101.488 6.65127C101.488 5.43591 101.236 4.38818 100.733 3.46618C100.23 2.54418 99.4341 1.87364 98.3863 1.32882C97.3386 0.825912 96.0394 0.574463 94.4888 0.574463H86.9033V18.763H91.3456V12.77Z" fill="#521DF6"/>
<path d="M110.833 3.96908H111.001L111.629 6.31599L113.264 11.8899H108.57L110.205 6.31599L110.833 3.96908ZM107.564 15.2845H114.27L115.276 18.763H119.927L114.06 0.574463H107.69L101.823 18.763H106.475L107.564 15.2845Z" fill="#521DF6"/>
<path d="M127.01 0.574463H122.526V18.763H134.847V14.7816H127.01V0.574463Z" fill="#521DF6"/>
<path d="M104.044 34.856L102.87 40.1785H102.703L101.404 34.856L98.3862 23.3729H96.3327L93.2733 34.8979L92.016 40.1785H91.8065L90.633 34.8979L87.7413 23.3729H86.1069L90.7588 41.5615H92.98L95.8716 30.7489L97.2547 25.0074H97.4223L98.8472 30.7489L101.655 41.5615H103.876L108.57 23.3729H106.894L104.044 34.856Z" fill="#521DF6"/>
<path d="M120.724 37.9574C120.346 38.7537 119.802 39.3823 119.089 39.8014C118.377 40.2205 117.58 40.43 116.616 40.43C115.904 40.43 115.275 40.3043 114.689 40.0528C114.102 39.8014 113.641 39.4242 113.222 38.9632C112.803 38.5022 112.509 37.9574 112.258 37.2868C112.048 36.6163 111.923 35.9038 111.923 35.0656C111.923 33.9341 112.132 32.9283 112.509 32.132C112.928 31.3357 113.473 30.7071 114.186 30.288C114.898 29.8689 115.694 29.6594 116.658 29.6594C117.371 29.6594 117.999 29.7851 118.586 30.0366C119.173 30.288 119.634 30.6652 120.053 31.1262C120.472 31.6291 120.765 32.1739 120.975 32.8445C121.185 33.515 121.268 34.2275 121.268 35.0656C121.31 36.1972 121.101 37.1611 120.724 37.9574ZM121.101 30.2042C120.556 29.6175 119.927 29.1565 119.173 28.8631C118.419 28.5278 117.58 28.4021 116.658 28.4021C115.401 28.4021 114.311 28.6955 113.389 29.2403C112.467 29.7851 111.755 30.5814 111.21 31.6291C110.707 32.6349 110.456 33.8084 110.456 35.1495C110.456 36.1553 110.623 37.0354 110.917 37.8736C111.21 38.6698 111.629 39.3823 112.174 39.969C112.719 40.5557 113.389 41.0167 114.144 41.3101C114.898 41.6454 115.736 41.7711 116.658 41.7711C117.916 41.7711 119.005 41.4777 119.927 40.9329C120.849 40.3881 121.562 39.5918 122.065 38.586C122.568 37.5802 122.819 36.4067 122.819 35.1075C122.819 34.1017 122.651 33.1797 122.358 32.3416C122.065 31.5034 121.646 30.7909 121.101 30.2042Z" fill="#521DF6"/>
<path d="M132.122 28.4021C131.2 28.4021 130.404 28.6536 129.65 29.1146C128.937 29.5756 128.393 30.2461 128.141 31.0843H128.057L127.974 28.5697H126.674V41.5615H128.141V33.4731C128.225 32.7187 128.434 32.0482 128.77 31.5034C129.147 30.9586 129.608 30.5395 130.195 30.2461C130.781 29.9527 131.452 29.827 132.164 29.827H132.584C132.709 29.827 132.835 29.827 132.961 29.8689V28.4859C132.835 28.4859 132.709 28.444 132.584 28.444C132.416 28.4021 132.248 28.4021 132.122 28.4021Z" fill="#521DF6"/>
<path d="M146.497 28.5697H144.612L138.744 34.395L137.571 35.6104V23.3729H136.062V41.5615H137.571V37.2867L140.379 34.6046L141.175 35.8618L145.031 41.5615H146.749L141.426 33.5568L146.497 28.5697Z" fill="#521DF6"/>
<path d="M158.568 36.0295C158.191 35.5266 157.646 35.1495 156.933 34.9399C156.221 34.6885 155.425 34.4789 154.461 34.3532C153.622 34.2275 152.91 34.0598 152.365 33.8922C151.82 33.7246 151.401 33.4731 151.15 33.1378C150.898 32.8026 150.731 32.3835 150.731 31.8806C150.731 31.1681 151.024 30.5814 151.611 30.1623C152.198 29.7432 152.994 29.5336 154.042 29.5336C154.67 29.5336 155.257 29.6175 155.76 29.827C156.263 29.9947 156.64 30.288 156.933 30.7071C157.227 31.1262 157.394 31.6291 157.436 32.2997H158.861C158.819 31.5034 158.61 30.7909 158.232 30.2042C157.855 29.6175 157.31 29.1565 156.598 28.8631C155.886 28.5278 155.047 28.4021 154.083 28.4021C153.12 28.4021 152.281 28.5698 151.569 28.8631C150.856 29.1984 150.312 29.6175 149.893 30.1623C149.473 30.7071 149.306 31.3358 149.306 32.0901C149.306 32.8864 149.473 33.515 149.851 33.976C150.228 34.437 150.731 34.8142 151.443 35.0656C152.156 35.3171 153.036 35.5266 154.042 35.6943C154.88 35.82 155.592 35.9457 156.095 36.1553C156.598 36.3229 157.017 36.6163 157.227 36.9097C157.478 37.2449 157.604 37.7059 157.604 38.2507C157.604 39.047 157.31 39.6337 156.724 40.0528C156.137 40.4719 155.257 40.6815 154.167 40.6815C153.455 40.6815 152.826 40.5976 152.239 40.3881C151.653 40.1786 151.234 39.8852 150.94 39.4242C150.605 39.0051 150.437 38.4603 150.396 37.8316H148.929C148.971 38.4184 149.096 38.9632 149.348 39.508C149.599 40.0109 149.935 40.43 150.396 40.8072C150.857 41.1425 151.401 41.4358 152.03 41.6034C152.659 41.813 153.371 41.8968 154.167 41.8968C155.173 41.8968 156.053 41.7711 156.808 41.4777C157.562 41.1844 158.149 40.7653 158.568 40.1786C158.987 39.6337 159.196 38.9213 159.196 38.125C159.155 37.203 158.945 36.5325 158.568 36.0295Z" fill="#521DF6"/>
<path d="M18.3398 37.0354H0.0255432V41.5616H18.3398V37.0354Z" fill="#521DF6"/>
<path d="M41.0961 27.899H18.3395V32.4252H41.0961V27.899Z" fill="#521DF6"/>
<path d="M50.1903 18.7629H18.3395V23.2891H50.1903V18.7629Z" fill="#521DF6"/>
<path d="M59.3687 9.6687H27.476V14.1949H59.3687V9.6687Z" fill="#521DF6"/>
<path d="M68.4209 0.532593H36.5281V5.05876H68.4209V0.532593Z" fill="#521DF6"/>
<path d="M31.9601 37.0354H22.9077V41.5616H31.9601V37.0354Z" fill="#521DF6"/>
<path d="M13.7301 27.899H9.16205V32.4252H13.7301V27.899Z" fill="#521DF6"/>
<path d="M77.5152 0.490601H72.989V5.05868H77.5152V0.490601Z" fill="#521DF6"/>
<path d="M77.5152 36.9934H72.989V41.5615H77.5152V36.9934Z" fill="#521DF6"/>
<path d="M68.4214 36.9934H50.2329V41.5615H68.4214V36.9934Z" fill="#521DF6"/>
<path d="M77.557 23.3311H73.0308V32.4672H77.557V23.3311Z" fill="#521DF6"/>
</svg>
