<svg width="160" height="42" viewBox="0 0 160 42" fill="none" xmlns="http://www.w3.org/2000/svg">
<path d="M96.1652 4.83254C96.6681 5.20972 96.9615 5.83835 96.9615 6.71844C96.9615 7.4309 96.7519 8.05953 96.2909 8.52053C95.8299 9.02343 95.1174 9.23298 94.1535 9.23298H91.3875V4.24581H94.1535C94.9498 4.24581 95.6204 4.45535 96.1652 4.83254ZM91.3456 12.6695H94.4888C95.8718 12.6695 97.0872 12.4181 98.1349 11.9571C99.1826 11.4542 100.021 10.7836 100.608 9.86162C101.194 8.93962 101.488 7.84999 101.488 6.55081C101.488 5.33545 101.236 4.28772 100.733 3.36572C100.23 2.44372 99.4341 1.77317 98.3863 1.22836C97.3386 0.725448 96.0394 0.473999 94.4888 0.473999H86.9033V18.6625H91.3456V12.6695Z" fill="#1C1C1C"/>
<path d="M110.833 3.86862H111.001L111.629 6.21553L113.264 11.7894H108.57L110.205 6.21553L110.833 3.86862ZM107.564 15.1841H114.27L115.276 18.6625H119.927L114.06 0.473999H107.69L101.823 18.6625H106.475L107.564 15.1841Z" fill="#1C1C1C"/>
<path d="M127.01 0.473999H122.526V18.6625H134.847V14.6812H127.01V0.473999Z" fill="#1C1C1C"/>
<path d="M104.044 34.7555L102.87 40.078H102.703L101.404 34.7555L98.3862 23.2725H96.3327L93.2733 34.7974L92.016 40.078H91.8065L90.633 34.7974L87.7413 23.2725H86.1069L90.7588 41.461H92.98L95.8716 30.6485L97.2547 24.9069H97.4223L98.8472 30.6485L101.655 41.461H103.876L108.57 23.2725H106.894L104.044 34.7555Z" fill="#1C1C1C"/>
<path d="M120.724 37.8569C120.346 38.6532 119.802 39.2818 119.089 39.7009C118.377 40.12 117.58 40.3295 116.616 40.3295C115.904 40.3295 115.275 40.2038 114.689 39.9524C114.102 39.7009 113.641 39.3237 113.222 38.8627C112.803 38.4017 112.509 37.8569 112.258 37.1864C112.048 36.5158 111.923 35.8034 111.923 34.9652C111.923 33.8336 112.132 32.8278 112.509 32.0316C112.928 31.2353 113.473 30.6066 114.186 30.1875C114.898 29.7685 115.694 29.5589 116.658 29.5589C117.371 29.5589 117.999 29.6846 118.586 29.9361C119.173 30.1876 119.634 30.5647 120.053 31.0257C120.472 31.5286 120.765 32.0735 120.975 32.744C121.185 33.4146 121.268 34.127 121.268 34.9652C121.31 36.0967 121.101 37.0606 120.724 37.8569ZM121.101 30.1037C120.556 29.517 119.927 29.056 119.173 28.7627C118.419 28.4274 117.58 28.3016 116.658 28.3016C115.401 28.3016 114.311 28.595 113.389 29.1398C112.467 29.6846 111.755 30.4809 111.21 31.5286C110.707 32.5345 110.456 33.7079 110.456 35.049C110.456 36.0548 110.623 36.9349 110.917 37.7731C111.21 38.5694 111.629 39.2818 112.174 39.8685C112.719 40.4553 113.389 40.9163 114.144 41.2096C114.898 41.5449 115.736 41.6706 116.658 41.6706C117.916 41.6706 119.005 41.3773 119.927 40.8324C120.849 40.2876 121.562 39.4914 122.065 38.4856C122.568 37.4797 122.819 36.3063 122.819 35.0071C122.819 34.0013 122.651 33.0793 122.358 32.2411C122.065 31.4029 121.646 30.6905 121.101 30.1037Z" fill="#1C1C1C"/>
<path d="M132.122 28.3016C131.2 28.3016 130.404 28.5531 129.65 29.0141C128.937 29.4751 128.393 30.1456 128.141 30.9838H128.057L127.974 28.4693H126.674V41.4611H128.141V33.3726C128.225 32.6183 128.434 31.9477 128.77 31.4029C129.147 30.8581 129.608 30.439 130.195 30.1456C130.781 29.8523 131.452 29.7266 132.164 29.7266H132.584C132.709 29.7266 132.835 29.7265 132.961 29.7685V28.3855C132.835 28.3855 132.709 28.3436 132.584 28.3436C132.416 28.3017 132.248 28.3016 132.122 28.3016Z" fill="#1C1C1C"/>
<path d="M146.497 28.4692H144.612L138.744 34.2946L137.571 35.5099V23.2725H136.062V41.461H137.571V37.1863L140.379 34.5041L141.175 35.7614L145.031 41.461H146.749L141.426 33.4564L146.497 28.4692Z" fill="#1C1C1C"/>
<path d="M158.568 35.9291C158.191 35.4262 157.646 35.049 156.933 34.8395C156.221 34.588 155.425 34.3785 154.461 34.2527C153.622 34.127 152.91 33.9594 152.365 33.7917C151.82 33.6241 151.401 33.3726 151.15 33.0374C150.898 32.7021 150.731 32.283 150.731 31.7801C150.731 31.0677 151.024 30.4809 151.611 30.0618C152.198 29.6427 152.994 29.4332 154.042 29.4332C154.67 29.4332 155.257 29.517 155.76 29.7266C156.263 29.8942 156.64 30.1875 156.933 30.6066C157.227 31.0257 157.394 31.5287 157.436 32.1992H158.861C158.819 31.4029 158.61 30.6905 158.232 30.1037C157.855 29.517 157.31 29.056 156.598 28.7627C155.886 28.4274 155.047 28.3016 154.083 28.3016C153.12 28.3016 152.281 28.4693 151.569 28.7627C150.856 29.0979 150.312 29.517 149.893 30.0618C149.473 30.6066 149.306 31.2353 149.306 31.9897C149.306 32.7859 149.473 33.4146 149.851 33.8756C150.228 34.3366 150.731 34.7137 151.443 34.9652C152.156 35.2166 153.036 35.4262 154.042 35.5938C154.88 35.7195 155.592 35.8453 156.095 36.0548C156.598 36.2224 157.017 36.5158 157.227 36.8092C157.478 37.1445 157.604 37.6054 157.604 38.1503C157.604 38.9465 157.31 39.5333 156.724 39.9524C156.137 40.3715 155.257 40.581 154.167 40.581C153.455 40.581 152.826 40.4972 152.239 40.2876C151.653 40.0781 151.234 39.7847 150.94 39.3237C150.605 38.9046 150.437 38.3598 150.396 37.7312H148.929C148.971 38.3179 149.096 38.8627 149.348 39.4075C149.599 39.9104 149.935 40.3295 150.396 40.7067C150.857 41.042 151.401 41.3353 152.03 41.503C152.659 41.7125 153.371 41.7963 154.167 41.7963C155.173 41.7963 156.053 41.6706 156.808 41.3773C157.562 41.0839 158.149 40.6648 158.568 40.0781C158.987 39.5333 159.196 38.8208 159.196 38.0245C159.155 37.1025 158.945 36.432 158.568 35.9291Z" fill="#1C1C1C"/>
<path d="M18.3398 36.9349H0.0255432V41.4611H18.3398V36.9349Z" fill="#1C1C1C"/>
<path d="M41.0961 27.7986H18.3395V32.3248H41.0961V27.7986Z" fill="#1C1C1C"/>
<path d="M50.1903 18.6625H18.3395V23.1887H50.1903V18.6625Z" fill="#1C1C1C"/>
<path d="M59.3687 9.56824H27.476V14.0944H59.3687V9.56824Z" fill="#1C1C1C"/>
<path d="M68.4209 0.432129H36.5281V4.9583H68.4209V0.432129Z" fill="#1C1C1C"/>
<path d="M31.9601 36.9349H22.9077V41.4611H31.9601V36.9349Z" fill="#1C1C1C"/>
<path d="M13.7301 27.7986H9.16205V32.3248H13.7301V27.7986Z" fill="#1C1C1C"/>
<path d="M77.5152 0.390137H72.989V4.95822H77.5152V0.390137Z" fill="#1C1C1C"/>
<path d="M77.5152 36.8929H72.989V41.461H77.5152V36.8929Z" fill="#1C1C1C"/>
<path d="M68.4214 36.8929H50.2329V41.461H68.4214V36.8929Z" fill="#1C1C1C"/>
<path d="M77.557 23.2306H73.0308V32.3668H77.557V23.2306Z" fill="#1C1C1C"/>
</svg>
