<svg width="171" height="84" viewBox="0 0 171 84" fill="none" xmlns="http://www.w3.org/2000/svg">
<rect x="0.75" y="0.75" width="169.5" height="82.5" stroke="white" stroke-width="1.5"/>
<path d="M65.3471 8H8V76H65.3471V8Z" fill="#B91226"/>
<path d="M12.4238 30.3741V30.123H22.643C25.2406 30.123 27.2958 30.3427 28.8087 30.782C30.3216 31.2213 31.6347 31.9431 32.7479 32.9158C33.8612 33.8886 34.7461 35.1124 35.4026 36.6187C36.0592 38.1249 36.3732 39.788 36.3732 41.6394C36.3732 43.4281 36.0306 45.1853 35.3455 46.9112C34.6605 48.6371 33.747 50.112 32.5767 51.3672C31.4063 52.6224 30.1789 53.4696 28.8658 53.9403C27.5813 54.411 25.5546 54.6307 22.8428 54.6307H12.4238V54.3796H12.7093C13.2516 54.3796 13.6227 54.1286 13.794 53.6579C13.9653 53.1872 14.0509 52.3086 14.0509 51.0534V33.1983C14.0509 31.8803 13.9367 31.0644 13.7369 30.782C13.5085 30.4996 13.0804 30.3741 12.4238 30.3741ZM20.0168 30.6251H16.5914V49.6413C16.5914 50.8337 16.7627 51.7437 17.1338 52.3086C17.5049 52.9048 18.1328 53.3127 19.0177 53.5637C19.9026 53.8148 21.1015 53.9403 22.6144 53.9403C26.782 53.9403 29.7222 52.7479 31.4063 50.3944C33.0905 48.0409 33.9468 45.4678 33.9468 42.675C33.9468 39.4115 32.7765 36.5559 30.4643 34.171C28.1522 31.8176 24.6697 30.6251 20.0168 30.6251Z" fill="white"/>
<path d="M38.6289 30.3741V30.123H44.9659C46.5644 30.123 47.7348 30.1544 48.4484 30.2486C49.162 30.3113 49.9042 30.5937 50.6464 31.0331C51.3886 31.4724 51.9595 32.0686 52.3591 32.8217C52.7302 33.5748 52.93 34.4848 52.93 35.5831C52.93 36.8383 52.5875 37.9994 51.9024 39.129C51.2173 40.2587 50.2468 41.2001 49.0193 41.9846L50.5893 44.6519C50.9318 45.3109 51.8453 46.7857 53.3296 49.0137C54.814 51.273 55.9558 52.6224 56.755 53.1244C57.5543 53.6265 58.3536 53.8775 59.0957 53.8775C59.8379 53.8775 60.6943 53.5637 61.6648 52.9362L61.7504 53.2813C60.5515 54.3796 58.9816 54.9131 57.0405 54.9131C55.756 54.9131 54.6427 54.5051 53.7007 53.6579C52.7873 52.8106 51.1602 50.5199 48.848 46.7543C48.8195 46.723 48.8195 46.723 48.8195 46.6916L46.593 42.8946L44.5948 42.9574H42.7965V52.2458C42.7965 52.9989 42.8821 53.5324 43.0534 53.8775C43.2247 54.1913 43.6814 54.3796 44.3665 54.3796V54.6307H38.6289V54.3796C39.3425 54.3482 39.7993 54.1913 39.9705 53.8775C40.1418 53.5637 40.2274 52.9675 40.2274 52.0575V32.6021C40.2274 31.9745 40.1418 31.441 39.9991 31.0331C39.8563 30.6251 39.3711 30.3741 38.6289 30.3741ZM42.7965 30.7506V42.2356H45.1372C46.9641 42.2356 48.3342 41.7649 49.2191 40.7922C50.104 39.8508 50.5608 38.5956 50.5608 37.0266C50.5608 35.5204 50.1326 34.0769 49.2477 32.7276C48.3628 31.3782 46.8213 30.7193 44.6234 30.7193H42.7965V30.7506Z" fill="white"/>
<path d="M74.5957 30.4991V30.248H80.9327C83.1878 30.248 84.8148 30.5305 85.8425 31.0639C86.8701 31.6288 87.6123 32.3191 88.069 33.135C88.5257 33.9509 88.7826 35.0492 88.7826 36.3985C88.7826 38.4695 88.1261 40.0072 86.8415 41.0427C85.557 42.0782 83.7872 42.5803 81.5607 42.5489V42.2979C82.9594 42.2979 84.1012 41.8272 84.9861 40.8858C85.871 39.9444 86.2992 38.6892 86.2992 37.1516C86.2992 35.9592 86.0994 34.8923 85.6712 33.9509C85.243 33.0095 84.6436 32.3191 83.8729 31.817C83.1021 31.3463 81.9318 31.0953 80.3333 31.0953H78.7633V51.9315C78.7633 53.1239 78.8775 53.8143 79.1344 54.0339C79.3913 54.2536 79.8195 54.3791 80.5045 54.3791V54.6301H74.6528V54.3791C75.709 54.3791 76.2228 53.8456 76.2228 52.8101V32.6329C76.2228 31.7857 76.1086 31.1894 75.9088 30.907C75.6804 30.656 75.2522 30.4991 74.5957 30.4991Z" fill="white"/>
<path d="M100.144 43.4281H93.6354L90.2671 52.6224C90.0387 53.2814 89.9245 53.6893 89.9245 53.8462C89.9245 54.2228 90.1814 54.3797 90.6667 54.3797V54.6307H87.3555V54.3797C87.7836 54.3797 88.1547 54.2542 88.4687 54.0345C88.7827 53.7835 89.0967 53.1873 89.4678 52.1831L97.5175 29.8721H97.9172L105.824 51.3986C105.824 51.5241 106.024 52.0262 106.424 52.9676C106.823 53.909 107.451 54.3797 108.279 54.3797V54.6307H103.084V54.3797C103.569 54.3797 103.797 54.16 103.797 53.7521C103.797 53.4697 103.683 53.0304 103.455 52.4341C103.426 52.4028 103.369 52.3086 103.341 52.2145C103.312 52.089 103.312 52.0576 103.284 52.0576L100.144 43.4281ZM93.8352 42.7378H99.8297L96.8324 34.4221L93.8352 42.7378Z" fill="white"/>
<path d="M128.746 54.6301H124.549V50.8646C122.409 53.4691 119.868 54.787 116.899 54.787C114.701 54.787 112.96 54.0967 111.676 52.7474C110.391 51.398 109.734 49.5152 109.734 47.1304V32.5388C109.734 31.6601 109.649 31.0953 109.449 30.8443C109.249 30.5932 108.821 30.4991 108.107 30.4991V30.248H113.988V30.4991C113.36 30.4991 112.932 30.5932 112.675 30.8129C112.418 31.0325 112.304 31.5346 112.304 32.3505V45.7497C112.304 48.5425 112.903 50.5508 114.102 51.7432C115.301 52.9356 116.642 53.5319 118.184 53.5319C120.582 53.5319 122.694 52.3394 124.549 49.9859V33.4802C124.549 32.0367 124.435 31.1894 124.207 30.907C123.978 30.6246 123.607 30.4991 123.122 30.4991H122.922V30.248H128.746V30.4991C128.032 30.5305 127.575 30.6874 127.375 30.907C127.176 31.1267 127.09 31.5346 127.09 32.1622V52.0256C127.09 52.8101 127.118 53.3122 127.204 53.5632C127.261 53.8143 127.404 54.0025 127.632 54.1594C127.861 54.3163 128.203 54.4105 128.746 54.4105V54.6301Z" fill="white"/>
<path d="M130.373 54.6301V54.3791C131.058 54.3791 131.515 54.2222 131.715 53.9398C131.915 53.6574 132.029 53.1553 132.029 52.4649V32.5388C132.029 31.817 131.943 31.315 131.801 31.0012C131.629 30.6874 131.144 30.5305 130.345 30.4991V30.248H136.282V30.4991C135.74 30.4991 135.34 30.5618 135.112 30.7187C134.883 30.8756 134.741 31.0639 134.684 31.2522C134.626 31.4719 134.569 31.9426 134.569 32.6643V49.7977C134.569 51.2725 134.883 52.308 135.54 52.9043C136.168 53.5005 137.281 53.8143 138.823 53.8143H141.534C142.847 53.8143 143.789 53.4691 144.389 52.7474C144.988 52.0256 145.331 50.7077 145.417 48.7621H145.645V54.6301H130.373Z" fill="white"/>
<path d="M160.689 30.5623L161.745 33.6061L161.573 33.6375C161.573 33.6375 161.288 33.2923 160.746 32.6647C160.175 32.0371 159.547 31.5351 158.833 31.1899C158.119 30.8447 157.292 30.6564 156.407 30.6564C154.894 30.6564 153.695 31.1271 152.81 32.0999C151.925 33.0413 151.468 34.2024 151.468 35.5517C151.468 36.4303 151.668 37.2148 152.096 37.9052C152.525 38.5641 153.381 39.1917 154.694 39.788C156.978 40.6352 158.519 41.2628 159.375 41.7021C160.203 42.1414 161.031 42.8318 161.802 43.8673C162.573 44.8715 162.972 46.1894 162.972 47.7584C162.972 48.4174 162.915 49.045 162.772 49.6412C162.63 50.2374 162.401 50.8336 162.087 51.3671C161.773 51.9319 161.402 52.434 160.974 52.9047C160.546 53.3754 160.089 53.7206 159.632 53.9402C159.176 54.1913 158.462 54.3482 157.492 54.4737C156.521 54.5992 155.864 54.662 155.55 54.662H149.642V47.5701H149.87C149.899 49.9236 150.384 51.5554 151.383 52.4968C152.382 53.4382 153.895 53.8775 155.979 53.8775C157.863 53.8775 159.29 53.3754 160.289 52.4026C161.259 51.4299 161.745 50.2374 161.745 48.8567C161.745 48.0095 161.573 47.2877 161.231 46.7229C160.888 46.1267 160.403 45.6246 159.804 45.1539C159.204 44.7146 158.034 44.1497 156.321 43.5221C154.637 42.8632 153.438 42.2983 152.753 41.7963C152.068 41.2942 151.497 40.5724 151.04 39.5683C150.584 38.5955 150.355 37.56 150.355 36.5558C150.355 34.673 150.955 33.0727 152.125 31.8175C153.295 30.5309 154.865 29.9033 156.778 29.9033C157.52 29.9033 158.319 29.9975 159.176 30.1857C160.032 30.374 160.517 30.4995 160.631 30.5623C160.603 30.5623 160.66 30.5623 160.689 30.5623Z" fill="white"/>
<path d="M143.903 33.7627V33.1978C144.302 32.7899 144.559 32.3506 144.73 31.9426C144.902 31.5347 144.987 30.9699 145.016 30.2481C144.102 29.9343 143.617 29.3067 143.617 28.3653C143.617 27.8319 143.788 27.3926 144.102 27.016C144.416 26.6395 144.788 26.4512 145.244 26.4512C145.787 26.4512 146.215 26.7022 146.557 27.2357C146.9 27.7691 147.071 28.4281 147.071 29.2126C147.071 30.2795 146.786 31.2209 146.243 32.0368C145.644 32.8526 144.873 33.4489 143.903 33.7627Z" fill="white"/>
<path d="M74.5957 66.7416V66.6475H78.4493C79.4198 66.6475 80.1905 66.7416 80.7614 66.8985C81.3323 67.0554 81.8176 67.3378 82.2458 67.683C82.674 68.0596 82.988 68.4989 83.2449 69.0637C83.5018 69.6285 83.616 70.2561 83.616 70.9465C83.616 71.6055 83.5018 72.2644 83.2449 72.9234C82.988 73.5824 82.6454 74.1159 82.1887 74.5865C81.7605 75.0572 81.2753 75.371 80.79 75.5593C80.3047 75.7476 79.5626 75.8104 78.5349 75.8104H74.5957V75.7162H74.7099C74.9097 75.7162 75.0524 75.6221 75.1095 75.4338C75.1666 75.2455 75.1951 74.9317 75.1951 74.461V67.7771C75.1951 67.2751 75.1666 66.9613 75.081 66.8671C75.0239 66.773 74.8526 66.7416 74.5957 66.7416ZM77.4502 66.8357H76.1657V73.9903C76.1657 74.4297 76.2228 74.7748 76.3655 74.9945C76.5082 75.2141 76.7366 75.371 77.0791 75.4652C77.4217 75.5593 77.8498 75.6221 78.4207 75.6221C79.9907 75.6221 81.104 75.1828 81.732 74.3041C82.36 73.4255 82.674 72.4527 82.674 71.4172C82.674 70.1934 82.2458 69.1265 81.3609 68.2165C80.5331 67.2751 79.22 66.8357 77.4502 66.8357Z" fill="white"/>
<path d="M84.4443 66.7416V66.6475H89.6966V67.9027H89.611C89.4968 67.432 89.4112 67.1495 89.3255 67.0868C89.2399 66.9926 89.0686 66.9613 88.7546 66.9613H85.9858V71.072H88.5548C88.8117 71.072 88.983 71.0406 89.0401 71.0093C89.0972 70.9465 89.1543 70.8837 89.1543 70.7896H89.2399V71.6682H89.1543C89.1257 71.5427 89.0972 71.48 89.0116 71.4172C88.9545 71.3858 88.8117 71.3544 88.6119 71.3544H85.9858V74.21C85.9858 74.6493 86.0143 74.9631 86.1 75.1514C86.1856 75.3397 86.2998 75.4652 86.4425 75.4966C86.5852 75.5279 86.8421 75.5593 87.1561 75.5593H88.6405C89.0972 75.5593 89.4112 75.5279 89.5539 75.4966C89.6966 75.4652 89.7823 75.4024 89.8964 75.2769C89.9821 75.1828 90.0677 74.9317 90.0963 74.5865H90.1819V75.8417H84.4729V75.7476C84.6727 75.7476 84.8154 75.6848 84.9011 75.6221C84.9867 75.5593 85.0438 75.371 85.0438 75.0886V67.6516C85.0438 67.3064 85.0152 67.0868 84.9582 66.9299C84.9011 66.8044 84.7298 66.7416 84.4443 66.7416Z" fill="white"/>
<path d="M97.6035 66.6475H99.2306V66.7416C98.9737 66.7416 98.8024 66.8044 98.7168 66.8985C98.6311 66.9926 98.574 67.2437 98.574 67.5575V75.9359L91.8945 68.1223V74.9317C91.8945 75.1514 91.923 75.3083 91.9516 75.4024C91.9801 75.4966 92.0372 75.5907 92.0943 75.6221C92.1514 75.6535 92.2941 75.6848 92.5225 75.7476V75.8417H90.924V75.7476C91.2094 75.7476 91.3807 75.6848 91.4663 75.5907C91.5234 75.4652 91.5805 75.2141 91.5805 74.7748V68.5616C91.5805 68.0282 91.5234 67.5575 91.3807 67.2123C91.238 66.8671 90.924 66.7102 90.4102 66.7416V66.6475H91.9801L98.2601 73.9903V67.4947C98.2601 67.1495 98.203 66.9299 98.0888 66.8671C97.9746 66.8044 97.8319 66.7416 97.6606 66.7416V66.6475H97.6035Z" fill="white"/>
<path d="M106.68 66.303L106.281 67.4013H106.195C106.224 67.3385 106.224 67.2444 106.224 67.1189C106.224 67.0247 106.195 66.962 106.138 66.9306C106.081 66.8992 105.967 66.8992 105.852 66.8992H103.626V74.7755C103.626 75.0893 103.655 75.309 103.683 75.4345C103.74 75.56 103.797 75.6228 103.883 75.6542C103.969 75.6856 104.083 75.6855 104.283 75.6855V75.7797H102.027V75.6855C102.313 75.6542 102.484 75.5914 102.57 75.4973C102.655 75.4031 102.684 75.1835 102.684 74.8697V66.8678H100.6C100.4 66.8678 100.258 66.8678 100.172 66.8992C100.115 66.9306 100.086 66.9933 100.086 67.0875C100.086 67.1502 100.115 67.213 100.143 67.3385H100.058L99.6582 66.2402H99.7438C99.8009 66.3971 99.8866 66.4913 99.9437 66.5227C100.001 66.554 100.143 66.554 100.372 66.554H105.91C106.138 66.554 106.281 66.554 106.395 66.5227C106.48 66.4913 106.566 66.3971 106.595 66.2402H106.68V66.303Z" fill="white"/>
<path d="M110.591 71.6068H108.136L106.88 75.09C106.794 75.341 106.737 75.4979 106.737 75.5607C106.737 75.6862 106.823 75.7803 107.023 75.7803V75.8745H105.767V75.7803C105.938 75.7803 106.081 75.749 106.195 75.6548C106.309 75.5607 106.423 75.341 106.566 74.9645L109.592 66.5547H109.734L112.732 74.6821C112.732 74.7134 112.817 74.9331 112.96 75.2783C113.103 75.6234 113.36 75.8117 113.674 75.8117V75.9059H111.733V75.8117C111.904 75.8117 111.989 75.749 111.989 75.5921C111.989 75.4979 111.932 75.3096 111.847 75.09C111.818 75.0586 111.818 75.0586 111.818 74.9958C111.818 74.9645 111.818 74.9331 111.79 74.9331L110.591 71.6068ZM108.193 71.3558H110.448L109.306 68.2178L108.193 71.3558Z" fill="white"/>
<path d="M113.846 75.8417V75.7476C114.103 75.7476 114.274 75.6848 114.36 75.5907C114.445 75.4966 114.474 75.3083 114.474 75.0259V67.4947C114.474 67.2437 114.445 67.024 114.388 66.9299C114.331 66.8044 114.16 66.7416 113.846 66.7416V66.6475H116.101V66.7416C115.901 66.7416 115.758 66.773 115.673 66.8357C115.587 66.8985 115.53 66.9613 115.501 67.0554C115.473 67.1495 115.473 67.3064 115.473 67.5889V74.0531C115.473 74.6179 115.587 74.9945 115.844 75.2141C116.072 75.4338 116.5 75.5593 117.1 75.5593H118.127C118.613 75.5593 118.984 75.4338 119.212 75.1514C119.441 74.9003 119.555 74.3983 119.583 73.6452H119.669V75.8417H113.846Z" fill="white"/>
<path d="M131.058 67.0874L131.372 68.0602H131.287C130.487 67.1816 129.517 66.7423 128.432 66.7423C127.29 66.7423 126.377 67.1188 125.663 67.8719C124.95 68.625 124.607 69.5037 124.607 70.5706C124.607 71.2296 124.75 71.9827 125.064 72.8299C125.378 73.6772 125.863 74.3675 126.548 74.9324C127.233 75.4658 128.033 75.7482 129.003 75.7482C129.631 75.7482 130.259 75.6227 130.858 75.4031C131.458 75.1834 131.915 74.8696 132.2 74.4931L132.286 74.5244L131.686 75.4972C130.744 75.7169 130.116 75.8424 129.831 75.9051C129.545 75.9365 129.174 75.9679 128.689 75.9679C126.948 75.9679 125.692 75.5286 124.921 74.6186C124.179 73.7399 123.779 72.6417 123.779 71.4178C123.779 70.5706 123.979 69.7547 124.35 69.0016C124.721 68.2485 125.292 67.6209 126.034 67.1502C126.777 66.7109 127.604 66.4912 128.546 66.4912C129.003 66.4912 129.431 66.5226 129.774 66.6167C130.116 66.7109 130.402 66.805 130.63 66.8991L131.058 67.0874Z" fill="white"/>
<path d="M132.514 75.8417V75.7476C132.771 75.7476 132.942 75.6848 133.027 75.5907C133.113 75.4966 133.142 75.3083 133.142 75.0259V67.4947C133.142 67.2437 133.113 67.024 133.056 66.9299C132.999 66.8044 132.828 66.7416 132.514 66.7416V66.6475H134.769V66.7416C134.569 66.7416 134.426 66.773 134.341 66.8357C134.255 66.8985 134.198 66.9613 134.169 67.0554C134.141 67.1495 134.141 67.3064 134.141 67.5889V74.0531C134.141 74.6179 134.255 74.9945 134.512 75.2141C134.74 75.4338 135.168 75.5593 135.768 75.5593H136.795C137.281 75.5593 137.652 75.4338 137.88 75.1514C138.109 74.9003 138.223 74.3983 138.251 73.6452H138.337V75.8417H132.514Z" fill="white"/>
<path d="M141.306 66.6475V66.7416C141.191 66.7416 141.077 66.7416 140.935 66.8044C140.792 66.8671 140.706 66.9299 140.706 67.024C140.678 67.1182 140.678 67.3378 140.678 67.7144V74.7748C140.678 75.1514 140.678 75.4024 140.706 75.4652C140.735 75.5593 140.792 75.6221 140.877 75.6848C140.963 75.7476 141.106 75.779 141.306 75.779V75.8731H139.079V75.779C139.365 75.779 139.536 75.7162 139.593 75.5907C139.65 75.4652 139.707 75.2141 139.707 74.7748V67.7771C139.707 67.3378 139.679 67.0554 139.593 66.9299C139.507 66.8044 139.336 66.7416 139.079 66.7416V66.6475H141.306Z" fill="white"/>
<path d="M149.042 66.6475H150.669V66.7416C150.412 66.7416 150.241 66.8044 150.155 66.8985C150.07 66.9926 150.013 67.2437 150.013 67.5575V75.9359L143.305 68.1223V74.9317C143.305 75.1514 143.333 75.3083 143.362 75.4024C143.39 75.4966 143.447 75.5907 143.504 75.6221C143.562 75.6535 143.704 75.6848 143.933 75.7476V75.8417H142.334V75.7476C142.62 75.7476 142.791 75.6848 142.876 75.5907C142.934 75.4652 142.991 75.2141 142.991 74.7748V68.5616C142.991 68.0282 142.934 67.5575 142.791 67.2123C142.648 66.8671 142.334 66.7102 141.82 66.7416V66.6475H143.39L149.67 73.9903V67.4947C149.67 67.1495 149.613 66.9299 149.499 66.8671C149.385 66.8044 149.242 66.7416 149.071 66.7416V66.6475H149.042Z" fill="white"/>
<path d="M153.666 66.6475V66.7416C153.552 66.7416 153.438 66.7416 153.295 66.8044C153.152 66.8671 153.067 66.9299 153.067 67.024C153.038 67.1182 153.038 67.3378 153.038 67.7144V74.7748C153.038 75.1514 153.038 75.4024 153.067 75.4652C153.095 75.5593 153.152 75.6221 153.238 75.6848C153.323 75.7476 153.466 75.779 153.666 75.779V75.8731H151.439V75.779C151.725 75.779 151.896 75.7162 151.953 75.5907C152.01 75.4652 152.067 75.2141 152.067 74.7748V67.7771C152.067 67.3378 152.039 67.0554 151.953 66.9299C151.868 66.8044 151.696 66.7416 151.439 66.7416V66.6475H153.666Z" fill="white"/>
<path d="M161.716 67.0874L162.03 68.0602H161.944C161.145 67.1816 160.174 66.7423 159.089 66.7423C157.948 66.7423 157.034 67.1188 156.32 67.8719C155.607 68.625 155.264 69.5037 155.264 70.5706C155.264 71.2296 155.407 71.9827 155.721 72.8299C156.035 73.6772 156.52 74.3675 157.205 74.9324C157.89 75.4658 158.69 75.7482 159.66 75.7482C160.288 75.7482 160.916 75.6227 161.516 75.4031C162.115 75.1834 162.572 74.8696 162.857 74.4931L162.943 74.5244L162.344 75.4972C161.402 75.7169 160.774 75.8424 160.488 75.9051C160.203 75.9365 159.832 75.9679 159.346 75.9679C157.605 75.9679 156.349 75.5286 155.578 74.6186C154.836 73.7399 154.437 72.6417 154.437 71.4178C154.437 70.5706 154.636 69.7547 155.007 69.0016C155.379 68.2485 155.949 67.6209 156.692 67.1502C157.434 66.7109 158.262 66.4912 159.204 66.4912C159.66 66.4912 160.088 66.5226 160.431 66.6167C160.774 66.7109 161.059 66.805 161.287 66.8991L161.716 67.0874Z" fill="white"/>
<path d="M65.3471 60.9062H8V62.1614H65.3471V60.9062Z" fill="white"/>
<path d="M162.942 60.9062H65.3467V62.1614H162.942V60.9062Z" fill="white"/>
<path d="M59.4117 52.5519C60.3645 52.5519 61.1368 51.7795 61.1368 50.8267C61.1368 49.8739 60.3645 49.1016 59.4117 49.1016C58.4589 49.1016 57.6865 49.8739 57.6865 50.8267C57.6865 51.7795 58.4589 52.5519 59.4117 52.5519Z" fill="white"/>
</svg>
